<svg xmlns="http://www.w3.org/2000/svg" xmlns:xlink="http://www.w3.org/1999/xlink" version="1.1" id="Layer_1" x="0px" y="0px" width="71px" height="64px" viewBox="0 0 71 64" enable-background="new 0 0 71 64" xml:space="preserve">
<g>
	<path fill="#0000FF" d="M65.682 30.862c-6 9-11 18-17 27c-10 1-21-2-31-1c-5-9-8-19-15-27c4-6 8-13 12-20c2-2 4-4 5-7 c10-1 21 2 31 1C54.682 12.9 59.7 21.9 65.7 30.862L65.682 30.862z"/>
	<path fill="none" stroke="#000000" stroke-miterlimit="10" d="M65.682 30.862c-6 9-11 18-17 27c-10 1-21-2-31-1c-5-9-8-19-15-27 c4-6 8-13 12-20c2-2 4-4 5-7c10-1 21 2 31 1C54.682 12.9 59.7 21.9 65.7 30.862L65.682 30.862z"/>
</g>
</svg>